<svg id="Layer_1" enable-background="new 0 0 256 256" height="512" viewBox="0 0 256 256" width="512" xmlns="http://www.w3.org/2000/svg"><path d="m128 69.886c-37.618 0-68.114 30.496-68.114 68.114s30.496 68.114 68.114 68.114 68.114-30.496 68.114-68.114-30.496-68.114-68.114-68.114zm0 118.833c-28.011 0-50.719-22.708-50.719-50.719s22.708-50.719 50.719-50.719 50.719 22.708 50.719 50.719-22.707 50.719-50.719 50.719z" fill="#ff4397"/><path d="m128 69.886c-1.344 0-2.675.049-4 .126 35.755 2.072 64.114 31.713 64.114 67.988s-28.359 65.916-64.114 67.988c1.325.077 2.656.126 4 .126 37.618 0 68.114-30.496 68.114-68.114s-30.496-68.114-68.114-68.114z" fill="#e12579"/><path d="m128 206.114c1.344 0 2.676-.049 4-.126-35.755-2.072-64.114-31.713-64.114-67.988s28.359-65.916 64.114-67.988c-1.324-.077-2.656-.126-4-.126-37.618 0-68.114 30.496-68.114 68.114s30.496 68.114 68.114 68.114z" fill="#ff61b5"/><path d="m128 208.114c-38.661 0-70.114-31.453-70.114-70.114s31.453-70.114 70.114-70.114 70.114 31.453 70.114 70.114-31.453 70.114-70.114 70.114zm0-136.228c-36.455 0-66.114 29.659-66.114 66.114s29.659 66.114 66.114 66.114 66.114-29.659 66.114-66.114-29.659-66.114-66.114-66.114zm0 118.833c-29.069 0-52.719-23.65-52.719-52.719s23.65-52.719 52.719-52.719 52.719 23.65 52.719 52.719-23.65 52.719-52.719 52.719zm0-101.438c-26.863 0-48.719 21.855-48.719 48.719s21.855 48.719 48.719 48.719 48.719-21.855 48.719-48.719-21.856-48.719-48.719-48.719z" fill="#690589"/><path d="m229.906 108.215c-7.781-7.781-16.843-13.485-26.503-17.152.051-1.136.086-2.277.086-3.426 0-30.532-18.137-56.811-44.214-68.702 14.427 9.95 23.889 26.585 23.889 45.436 0 30.466-24.698 55.164-55.164 55.164s-55.164-24.697-55.164-55.163c0-18.851 9.462-35.486 23.89-45.436-26.078 11.891-44.214 38.17-44.214 68.702 0 1.147.029 2.286.08 3.42-9.658 3.67-18.717 9.379-26.497 17.158-21.59 21.589-27.348 52.995-17.316 79.843-3.166-17.237 1.906-35.691 15.236-49.02 21.543-21.543 56.471-21.543 78.014 0s21.543 56.471 0 78.014c-13.33 13.33-31.783 18.402-49.02 15.236 24.901 9.304 53.718 5.016 74.992-12.879 21.274 17.894 50.091 22.183 74.992 12.879-17.237 3.166-35.69-1.906-49.02-15.236-21.543-21.543-21.543-56.471 0-78.014s56.471-21.543 78.014 0c13.33 13.33 18.402 31.783 15.236 49.02 10.03-26.848 4.272-58.254-17.317-79.844z" fill="#fcc24c"/><path d="m229.906 108.215c-7.781-7.781-16.843-13.485-26.503-17.152.051-1.136.086-2.277.086-3.426 0-30.532-18.137-56.811-44.214-68.702 8.61 5.938 15.43 14.269 19.548 24.019 9.213 12.508 14.667 27.953 14.667 44.682 0 .532-.007 1.706-.021 2.926-.023 2.111 1.284 4.01 3.263 4.744 8.411 3.117 16.294 6.028 23.175 12.908 12.172 12.172 19.31 27.465 21.425 43.302 6.179 11.258 8.157 24.206 5.891 36.542 10.03-26.847 4.272-58.253-17.317-79.843z" fill="#dea42e"/><path d="m26.094 108.215c7.781-7.781 16.843-13.485 26.503-17.152-.051-1.136-.086-2.277-.086-3.426 0-30.532 18.136-56.811 44.214-68.702-8.61 5.938-15.43 14.269-19.548 24.019-9.213 12.508-14.667 27.953-14.667 44.682 0 .532.007 1.706.021 2.926.023 2.111-1.284 4.01-3.263 4.744-8.411 3.117-16.294 6.028-23.175 12.908-12.172 12.172-19.31 27.465-21.425 43.302-6.179 11.258-8.156 24.206-5.891 36.542-10.03-26.847-4.272-58.253 17.317-79.843z" fill="#fce06a"/><path d="m176.554 239.064c-17.433.001-34.635-5.862-48.554-17.064-21.208 17.069-50.052 21.742-75.692 12.162-.971-.363-1.504-1.407-1.228-2.406.276-1 1.267-1.617 2.289-1.435 17.226 3.165 34.887-2.324 47.245-14.682 10.041-10.042 15.571-23.392 15.571-37.593s-5.53-27.552-15.571-37.593c-20.729-20.728-54.457-20.728-75.186 0-12.358 12.358-17.847 30.02-14.684 47.245.188 1.02-.435 2.013-1.434 2.289-.999.274-2.044-.257-2.406-1.228-10.604-28.384-3.628-60.554 17.776-81.958 7.447-7.447 16.142-13.192 25.86-17.09-.02-.708-.029-1.395-.029-2.074 0-30.269 17.814-57.95 45.385-70.521.944-.428 2.059-.068 2.57.833s.248 2.044-.604 2.633c-14.418 9.943-23.025 26.313-23.025 43.79 0 29.315 23.85 53.164 53.164 53.164s53.164-23.849 53.164-53.164c0-17.477-8.607-33.846-23.025-43.79-.853-.588-1.115-1.731-.604-2.633.513-.901 1.626-1.262 2.57-.833 27.57 12.572 45.385 40.253 45.385 70.521 0 .657-.011 1.337-.033 2.081 9.725 3.897 18.42 9.64 25.864 17.083 21.403 21.403 28.38 53.574 17.774 81.958-.362.971-1.403 1.504-2.406 1.228-.999-.276-1.621-1.27-1.434-2.289 3.163-17.225-2.325-34.887-14.684-47.245-20.729-20.728-54.457-20.728-75.186 0-10.041 10.042-15.571 23.392-15.571 37.593s5.53 27.551 15.571 37.593c12.358 12.358 30.02 17.849 47.245 14.682 1.023-.181 2.013.435 2.289 1.435.276.999-.257 2.043-1.228 2.406-8.813 3.293-18.008 4.901-27.138 4.902zm-48.554-21.654c.458 0 .915.156 1.287.469 15.556 13.084 35.708 18.942 55.474 16.727-12.045-1.749-23.379-7.315-32.203-16.139-22.288-22.288-22.288-58.554 0-80.842 22.287-22.288 58.555-22.288 80.842 0 8.817 8.817 14.382 20.142 16.136 32.176 2.432-21.897-5.068-44.197-21.043-60.171-7.383-7.382-16.062-13-25.799-16.696-.808-.306-1.326-1.096-1.288-1.959.058-1.282.084-2.342.084-3.337 0-22.591-10.465-43.663-27.668-57.427 7.27 9.749 11.343 21.693 11.343 34.161 0 31.521-25.644 57.164-57.164 57.164s-57.165-25.644-57.165-57.164c0-12.468 4.073-24.412 11.343-34.161-17.203 13.763-27.668 34.835-27.668 57.426 0 1.068.025 2.157.078 3.331.039.862-.48 1.652-1.287 1.959-9.729 3.697-18.408 9.317-25.794 16.703-15.975 15.975-23.475 38.274-21.043 60.171 1.754-12.034 7.318-23.359 16.136-32.176 22.287-22.288 58.555-22.288 80.842 0 22.288 22.288 22.288 58.554 0 80.842-8.823 8.823-20.159 14.39-32.203 16.139 19.766 2.217 39.917-3.642 55.474-16.727.371-.313.828-.469 1.286-.469z" fill="#690589"/><path d="m31.411 116.436c-.512 0-1.023-.195-1.414-.586-.781-.781-.781-2.047 0-2.829 3.291-3.29 6.862-6.292 10.615-8.923.906-.634 2.151-.415 2.786.49.634.904.415 2.152-.489 2.786-3.564 2.498-6.957 5.35-10.084 8.477-.39.389-.902.585-1.414.585z" fill="#690589"/><circle cx="128" cy="138" fill="#f4efed" r="10.261"/><path d="m128 150.261c-6.761 0-12.261-5.5-12.261-12.261s5.5-12.261 12.261-12.261 12.261 5.5 12.261 12.261-5.5 12.261-12.261 12.261zm0-20.522c-4.555 0-8.261 3.706-8.261 8.261s3.706 8.261 8.261 8.261 8.261-3.706 8.261-8.261-3.706-8.261-8.261-8.261z" fill="#690589"/></svg>